<mxfile host="app.diagrams.net" modified="2023-10-17T10:39:28.479Z" agent="Mozilla/5.0 (Windows NT 10.0; Win64; x64) AppleWebKit/537.36 (KHTML, like Gecko) Chrome/118.0.0.0 Safari/537.36" version="22.0.4" etag="ti-SpbJGXLH3EEgSBzKr" type="github">
  <diagram name="第 1 页" id="yiRCIXjoChE1_eJXJ1uX">
    <mxGraphModel>
      <root>
        <mxCell id="0" />
        <mxCell id="1" parent="0" />
      </root>
    </mxGraphModel>
  </diagram>
</mxfile>
